<svg width="152" height="45" viewBox="0 0 152 45" fill="none" xmlns="http://www.w3.org/2000/svg">
<g clip-path="url(#clip0_9564_21940)">
<path d="M146.249 0H5.62432C2.51809 0 0 2.5181 0 5.62432V39.3757C0 42.4819 2.51809 45 5.62432 45H146.249C149.355 45 151.873 42.4819 151.873 39.3757V5.62432C151.873 2.5181 149.355 0 146.249 0Z" fill="black"/>
<path d="M146.249 0.902269C148.853 0.902269 150.976 3.02017 150.976 5.62973V39.3811C150.976 41.9852 148.858 44.1085 146.249 44.1085H5.62432C3.02017 44.1085 0.896866 41.9906 0.896866 39.3811V5.62432C0.902269 3.02017 3.02017 0.902269 5.62432 0.902269H146.249ZM146.249 0H5.62432C2.53392 0 0 2.53392 0 5.62432V39.3757C0 42.4715 2.53392 45 5.62432 45H146.249C149.344 45 151.873 42.4661 151.873 39.3757V5.62432C151.873 2.53392 149.344 0 146.249 0Z" fill="#A6A6A6"/>
<path d="M53.3474 11.5242C53.3474 12.4643 53.0665 13.2153 52.51 13.7772C51.8779 14.4417 51.0566 14.7767 50.0301 14.7767C49.0036 14.7767 48.2202 14.4363 47.5394 13.761C46.8587 13.0802 46.5237 12.2482 46.5237 11.2541C46.5237 10.26 46.8641 9.42252 47.5394 8.74717C48.2202 8.06642 49.0468 7.73145 50.0301 7.73145C50.5272 7.73145 50.9972 7.81789 51.4348 7.99618C51.8779 8.17448 52.2344 8.4176 52.5208 8.74177L51.8995 9.36309C51.6942 9.11456 51.424 8.91466 51.0945 8.77419C50.7649 8.63371 50.4137 8.56348 50.0355 8.56348C49.3007 8.56348 48.6794 8.81741 48.1715 9.32527C47.6691 9.83854 47.4151 10.4869 47.4151 11.2595C47.4151 12.0321 47.6691 12.675 48.1715 13.1937C48.6794 13.7015 49.3007 13.9555 50.0355 13.9555C50.7055 13.9555 51.2673 13.7664 51.7158 13.3882C52.1642 13.01 52.4181 12.4913 52.4884 11.8322H50.0355V11.0218H53.3042C53.3366 11.2 53.3528 11.3675 53.3528 11.5296L53.3474 11.5242Z" fill="white" stroke="white" stroke-width="0.226918" stroke-miterlimit="10"/>
<path d="M58.5285 7.8772V8.70923H55.4543V10.8487H58.2259V11.6592H55.4543V13.7987H58.5285V14.6307H54.5898V7.8826H58.5285V7.8772Z" fill="white" stroke="white" stroke-width="0.226918" stroke-miterlimit="10"/>
<path d="M62.1917 8.70386V14.6253H61.3219V8.70386H59.4363V7.87183H64.0773V8.70386H62.1917Z" fill="white" stroke="white" stroke-width="0.226918" stroke-miterlimit="10"/>
<path d="M68.2968 14.6253H67.4324V7.8772H68.2968V14.6253Z" fill="white" stroke="white" stroke-width="0.226918" stroke-miterlimit="10"/>
<path d="M72.1436 8.70386V14.6253H71.2738V8.70386H69.3882V7.87183H74.0292V8.70386H72.1436Z" fill="white" stroke="white" stroke-width="0.226918" stroke-miterlimit="10"/>
<path d="M83.8029 11.2487C83.8029 12.2482 83.4679 13.0857 82.8034 13.7556C82.1281 14.4364 81.3068 14.7713 80.3343 14.7713C79.3618 14.7713 78.5298 14.431 77.8652 13.7556C77.2007 13.0857 76.8657 12.2482 76.8657 11.2487C76.8657 10.2492 77.2007 9.41175 77.8652 8.7418C78.5298 8.06105 79.3564 7.72607 80.3343 7.72607C81.3122 7.72607 82.1389 8.06645 82.8034 8.75261C83.4679 9.42256 83.8029 10.26 83.8029 11.2487ZM77.7518 11.2487C77.7518 12.0267 77.9949 12.675 78.4866 13.1829C78.9836 13.6908 79.5995 13.9447 80.3343 13.9447C81.0691 13.9447 81.685 13.6908 82.1713 13.1829C82.6683 12.6804 82.9169 12.0375 82.9169 11.2487C82.9169 10.4599 82.6683 9.81696 82.1713 9.3145C81.6796 8.80664 81.0691 8.5527 80.3343 8.5527C79.5995 8.5527 78.9836 8.80664 78.4866 9.3145C77.9949 9.82236 77.7518 10.4707 77.7518 11.2487Z" fill="white" stroke="white" stroke-width="0.226918" stroke-miterlimit="10"/>
<path d="M85.8884 14.6253H85.0239V7.8772H86.0775L89.357 13.1287H89.3948L89.357 11.8267V7.8772H90.2268V14.6253H89.3192L85.8884 9.11984H85.8506L85.8884 10.4219V14.6253Z" fill="white" stroke="white" stroke-width="0.226918" stroke-miterlimit="10"/>
<path d="M76.6496 24.4693C74.0023 24.4693 71.8465 26.4792 71.8465 29.2562C71.8465 32.0333 74.0023 34.0431 76.6496 34.0431C79.297 34.0431 81.4527 32.0117 81.4527 29.2562C81.4527 26.5008 79.297 24.4693 76.6496 24.4693ZM76.6496 32.1521C75.2017 32.1521 73.9482 30.9581 73.9482 29.2508C73.9482 27.5435 75.1963 26.3495 76.6496 26.3495C78.103 26.3495 79.351 27.5273 79.351 29.2508C79.351 30.9743 78.103 32.1521 76.6496 32.1521ZM66.1736 24.4693C63.5262 24.4693 61.3705 26.4792 61.3705 29.2562C61.3705 32.0333 63.5262 34.0431 66.1736 34.0431C68.821 34.0431 70.9767 32.0117 70.9767 29.2562C70.9767 26.5008 68.821 24.4693 66.1736 24.4693ZM66.1736 32.1521C64.7256 32.1521 63.4722 30.9581 63.4722 29.2508C63.4722 27.5435 64.7202 26.3495 66.1736 26.3495C67.6269 26.3495 68.875 27.5273 68.875 29.2508C68.875 30.9743 67.6269 32.1521 66.1736 32.1521ZM53.7093 25.9335V27.965H58.5664C58.4206 29.105 58.0424 29.9424 57.4589 30.5205C56.7511 31.2283 55.6489 32.0063 53.7093 32.0063C50.7162 32.0063 48.3821 29.5966 48.3821 26.6035C48.3821 23.6103 50.7216 21.2006 53.7093 21.2006C55.3248 21.2006 56.5026 21.8328 57.3724 22.6486L58.8042 21.2169C57.5885 20.0553 55.9785 19.1692 53.7093 19.1692C49.614 19.1692 46.167 22.5027 46.167 26.5981C46.167 30.6934 49.6086 34.0269 53.7093 34.0269C55.9191 34.0269 57.5885 33.3029 58.8906 31.9414C60.2305 30.6015 60.6465 28.716 60.6465 27.1924C60.6465 26.7223 60.6087 26.2847 60.5385 25.9227H53.7039L53.7093 25.9335ZM104.679 27.5111C104.28 26.4414 103.064 24.4639 100.584 24.4639C98.1042 24.4639 96.0727 26.4036 96.0727 29.2508C96.0727 31.9306 98.1042 34.0377 100.822 34.0377C103.015 34.0377 104.285 32.6978 104.809 31.9198L103.177 30.8339C102.632 31.6335 101.892 32.1575 100.822 32.1575C99.752 32.1575 98.9902 31.6659 98.504 30.7096L104.901 28.0622L104.685 27.5165L104.679 27.5111ZM98.1528 29.105C98.0988 27.2572 99.5845 26.3117 100.654 26.3117C101.486 26.3117 102.194 26.7277 102.432 27.3274L98.1528 29.105ZM92.9499 33.746H95.0516V19.6825H92.9499V33.746ZM89.5083 25.5337H89.4381C88.968 24.9718 88.0604 24.4639 86.9204 24.4639C84.5269 24.4639 82.3334 26.5656 82.3334 29.267C82.3334 31.9684 84.5269 34.0323 86.9204 34.0323C88.0604 34.0323 88.968 33.5245 89.4381 32.9464H89.5083V33.6325C89.5083 35.4641 88.5304 36.442 86.9528 36.442C85.6669 36.442 84.8673 35.5181 84.5431 34.7401L82.7116 35.5019C83.2356 36.7715 84.635 38.3276 86.9528 38.3276C89.4165 38.3276 91.5019 36.8796 91.5019 33.3408V24.7503H89.5083V25.5283V25.5337ZM87.0987 32.1467C85.6507 32.1467 84.4351 30.9311 84.4351 29.267C84.4351 27.603 85.6507 26.3495 87.0987 26.3495C88.5466 26.3495 89.6542 27.5814 89.6542 29.267C89.6542 30.9527 88.5304 32.1467 87.0987 32.1467ZM114.529 19.6771H109.499V33.7406H111.595V28.4134H114.529C116.857 28.4134 119.143 26.7277 119.143 24.0479C119.143 21.3681 116.857 19.6825 114.529 19.6825V19.6771ZM114.583 26.4576H111.595V21.6383H114.583C116.15 21.6383 117.041 22.9403 117.041 24.0479C117.041 25.1555 116.15 26.4576 114.583 26.4576ZM127.555 24.4369C126.037 24.4369 124.459 25.1069 123.811 26.5927L125.675 27.3707C126.075 26.5926 126.815 26.3387 127.593 26.3387C128.679 26.3387 129.781 26.9925 129.802 28.1487V28.2945C129.424 28.0784 128.608 27.7543 127.614 27.7543C125.604 27.7543 123.562 28.8564 123.562 30.9203C123.562 32.8005 125.21 34.0161 127.052 34.0161C128.463 34.0161 129.241 33.384 129.732 32.6384H129.802V33.7244H131.828V28.3324C131.828 25.8363 129.965 24.4423 127.56 24.4423L127.555 24.4369ZM127.301 32.1467C126.615 32.1467 125.653 31.801 125.653 30.9527C125.653 29.8668 126.847 29.4507 127.879 29.4507C128.803 29.4507 129.235 29.6506 129.797 29.9208C129.635 31.2229 128.511 32.1467 127.301 32.1467ZM139.209 24.7449L136.804 30.8447H136.734L134.238 24.7449H131.974L135.719 33.2651L133.584 38.0034H135.773L141.543 24.7395H139.209V24.7449ZM120.299 33.7406H122.395V19.6771H120.299V33.7406Z" fill="white"/>
<path d="M23.3076 21.8542L11.3296 34.5671C11.3296 34.5671 11.3296 34.5671 11.3296 34.5725C11.697 35.9502 12.9558 36.9713 14.4524 36.9713C15.0521 36.9713 15.614 36.8092 16.0949 36.5283L16.1327 36.5067L29.6127 28.7266L23.3022 21.8596L23.3076 21.8542Z" fill="#EA4335"/>
<path d="M35.4262 19.6878H35.4154L29.5966 16.3057L23.0376 22.1407L29.6182 28.7213L35.41 25.3824C36.4258 24.8367 37.1119 23.7669 37.1119 22.5297C37.1119 21.2925 36.4312 20.2389 35.4262 19.6878Z" fill="#FBBC04"/>
<path d="M11.3297 10.4382C11.2595 10.703 11.2217 10.9839 11.2217 11.2703V33.7351C11.2217 34.0215 11.2595 34.3024 11.3297 34.5672L23.7184 22.1785L11.3297 10.4382Z" fill="#4285F4"/>
<path d="M23.3941 22.5027L29.5911 16.3056L16.1273 8.49858C15.6356 8.20683 15.0683 8.03394 14.4578 8.03394C12.9612 8.03394 11.697 9.05507 11.3296 10.4328L23.3941 22.4973V22.5027Z" fill="#34A853"/>
</g>
<defs>
<clipPath id="clip0_9564_21940">
<rect width="151.873" height="45" fill="white"/>
</clipPath>
</defs>
</svg>
