<svg width="136" height="45" viewBox="0 0 136 45" fill="none" xmlns="http://www.w3.org/2000/svg">
<g clip-path="url(#clip0_9564_21939)">
<path d="M124.775 0H11.5975C11.1869 0 10.7816 0 10.3656 0C10.0198 0 9.67947 0.0108056 9.33369 0.0162084C8.5773 0.027014 7.82631 0.0918478 7.08072 0.216112C6.33513 0.340377 5.61656 0.578101 4.94121 0.92388C4.27126 1.26966 3.65534 1.71809 3.12046 2.24757C2.58558 2.78245 2.13715 3.39837 1.79677 4.07372C1.4564 4.74907 1.21867 5.46764 1.09441 6.21323C0.970144 6.95882 0.899907 7.70981 0.894504 8.4662C0.883699 8.81198 0.883699 9.15776 0.878296 9.50354V35.5073C0.883699 35.8584 0.883699 36.1934 0.894504 36.5446C0.90531 37.301 0.970144 38.052 1.09441 38.7976C1.21867 39.5432 1.4564 40.2671 1.79677 40.9425C2.13715 41.6178 2.58558 42.2284 3.12046 42.7578C3.64994 43.2927 4.26586 43.7411 4.94121 44.0815C5.61656 44.4219 6.33513 44.665 7.08072 44.7893C7.82631 44.9136 8.5773 44.9784 9.33369 44.9892C9.67947 44.9946 10.0252 45 10.3656 45C10.7762 45 11.1869 45 11.5975 45H124.77C125.175 45 125.586 45 125.991 45C126.331 45 126.688 45 127.028 44.9892C127.785 44.9784 128.536 44.9136 129.276 44.7893C130.022 44.6596 130.746 44.4219 131.421 44.0815C132.096 43.7411 132.707 43.2927 133.242 42.7578C133.777 42.2284 134.225 41.6124 134.571 40.9425C134.911 40.2671 135.143 39.5432 135.268 38.7976C135.392 38.052 135.462 37.301 135.478 36.5446C135.478 36.1934 135.478 35.8584 135.478 35.5073C135.489 35.0966 135.489 34.6914 135.489 34.2754V10.73C135.489 10.3194 135.489 9.90875 135.478 9.50354C135.478 9.15776 135.478 8.81198 135.478 8.4662C135.462 7.70981 135.397 6.95882 135.268 6.21323C135.143 5.46764 134.911 4.74367 134.571 4.07372C133.874 2.72302 132.777 1.62084 131.421 0.92388C130.746 0.583503 130.022 0.34578 129.276 0.216112C128.53 0.0918478 127.779 0.027014 127.028 0.0162084C126.688 0.0108056 126.331 0.00540281 125.991 0C125.586 0 125.175 0 124.77 0L124.775 0Z" fill="#A6A6A6"/>
<path d="M10.371 44.0168C10.0307 44.0168 9.69568 44.0168 9.3553 44.006C8.65293 43.9952 7.95057 43.9357 7.25361 43.8223C6.60527 43.7088 5.97854 43.5035 5.38964 43.2064C4.80613 42.9092 4.27666 42.5256 3.81742 42.061C3.35278 41.6017 2.96378 41.0722 2.67203 40.4887C2.37487 39.8998 2.16956 39.2731 2.06151 38.6248C1.94805 37.9278 1.88322 37.22 1.87241 36.5177C1.86701 36.2799 1.8562 35.4911 1.8562 35.4911V9.49823C1.8562 9.49823 1.86701 8.72022 1.87241 8.4933C1.88322 7.78554 1.94265 7.08317 2.05611 6.38621C2.16416 5.73787 2.36947 5.10574 2.66662 4.51684C2.95837 3.93333 3.34738 3.40386 3.80661 2.94462C4.27126 2.47998 4.80073 2.09097 5.38424 1.79382C5.96774 1.49667 6.59446 1.29136 7.2428 1.1833C7.93976 1.06984 8.64753 1.00501 9.3553 0.999607L10.371 0.983398H125.986L127.012 0.999607C127.715 1.01041 128.412 1.06984 129.103 1.1833C129.757 1.29676 130.389 1.50207 130.983 1.79922C132.15 2.39893 133.101 3.35523 133.701 4.52224C133.993 5.10574 134.198 5.73247 134.301 6.3754C134.42 7.07777 134.484 7.78554 134.495 8.49871C134.495 8.81747 134.495 9.15785 134.495 9.49823C134.506 9.91965 134.506 10.3195 134.506 10.7247V34.2701C134.506 34.6807 134.506 35.0751 134.495 35.4803C134.495 35.8477 134.495 36.1827 134.495 36.5285C134.484 37.2254 134.42 37.9224 134.301 38.614C134.198 39.2677 133.993 39.8998 133.696 40.4941C133.398 41.0722 133.015 41.5963 132.556 42.0556C132.096 42.5202 131.567 42.9092 130.983 43.2064C130.394 43.5035 129.762 43.7142 129.109 43.8223C128.412 43.9357 127.709 43.9952 127.007 44.006C126.677 44.0114 126.331 44.0168 125.997 44.0168H124.775H10.3764H10.371Z" fill="black"/>
<path d="M28.7352 22.8378C28.7622 20.9306 29.7617 19.1639 31.388 18.1644C30.356 16.6948 28.692 15.7925 26.8982 15.7385C25.0073 15.5386 23.1757 16.8677 22.214 16.8677C21.2523 16.8677 19.7503 15.7547 18.1565 15.7871C16.0548 15.8574 14.1476 17.019 13.1265 18.8559C10.9492 22.6217 12.5754 28.1596 14.6555 31.2013C15.6982 32.6925 16.9193 34.3566 18.5131 34.2972C20.0745 34.2323 20.658 33.303 22.5382 33.303C24.4184 33.303 24.9532 34.2972 26.5795 34.2593C28.2543 34.2323 29.3079 32.7628 30.3128 31.2554C31.0638 30.191 31.6365 29.0186 32.0201 27.776C30.0319 26.9331 28.7406 24.9881 28.7352 22.827V22.8378Z" fill="white"/>
<path d="M25.6664 13.7394C26.5794 12.6426 27.0279 11.2325 26.9198 9.81152C25.5259 9.9574 24.2346 10.6219 23.3107 11.6809C22.3977 12.7182 21.933 14.0797 22.0249 15.4629C23.4404 15.4791 24.7803 14.8415 25.6664 13.7394Z" fill="white"/>
<path d="M48.4608 30.5313H43.1337L41.8532 34.3078H39.6002L44.6464 20.3362H46.9913L52.0375 34.3078H49.7413L48.4662 30.5313H48.4608ZM43.6847 28.7862H47.9043L45.8243 22.6594H45.7648L43.6847 28.7862Z" fill="white"/>
<path d="M62.9296 29.2185C62.9296 32.3845 61.2331 34.416 58.6776 34.416C57.3539 34.4862 56.1113 33.7946 55.4737 32.633H55.4251V37.6793H53.3342V24.1236H55.3603V25.8201H55.3981C56.0626 24.6693 57.3107 23.9777 58.6398 24.021C61.2223 24.021 62.9296 26.0632 62.9296 29.2185ZM60.7793 29.2185C60.7793 27.1546 59.7149 25.7985 58.0887 25.7985C56.4625 25.7985 55.4143 27.1816 55.4143 29.2185C55.4143 31.2553 56.4895 32.6438 58.0887 32.6438C59.6879 32.6438 60.7793 31.2985 60.7793 29.2185Z" fill="white"/>
<path d="M74.1349 29.2185C74.1349 32.3845 72.4385 34.416 69.8829 34.416C68.5592 34.4862 67.3166 33.7946 66.6791 32.633H66.6304V37.6793H64.5396V24.1236H66.5656V25.8201H66.6034C67.268 24.6693 68.516 23.9777 69.8451 24.021C72.4277 24.021 74.1349 26.0632 74.1349 29.2185ZM71.9846 29.2185C71.9846 27.1546 70.9203 25.7985 69.294 25.7985C67.6678 25.7985 66.6196 27.1816 66.6196 29.2185C66.6196 31.2553 67.6948 32.6438 69.294 32.6438C70.8933 32.6438 71.9846 31.2985 71.9846 29.2185Z" fill="white"/>
<path d="M81.5477 30.4177C81.7044 31.8008 83.0497 32.7139 84.8866 32.7139C86.7236 32.7139 87.9176 31.8062 87.9176 30.5528C87.9176 29.4668 87.1504 28.8185 85.3405 28.3755L83.5305 27.9378C80.9642 27.3165 79.7756 26.1171 79.7756 24.1721C79.7756 21.7624 81.8773 20.1038 84.8596 20.1038C87.842 20.1038 89.8356 21.757 89.9058 24.1721H87.7933C87.6691 22.7782 86.5129 21.9353 84.8326 21.9353C83.1523 21.9353 81.9961 22.789 81.9961 24.0262C81.9961 25.0149 82.7309 25.593 84.5354 26.0414L86.0752 26.4196C88.9441 27.095 90.1328 28.2512 90.1328 30.2935C90.1328 32.9084 88.0527 34.5455 84.7407 34.5455C81.6449 34.5455 79.5486 32.9462 79.4136 30.4177H81.5531H81.5477Z" fill="white"/>
<path d="M94.6386 21.7139V24.1235H96.5728V25.7768H94.6386V31.3903C94.6386 32.2602 95.0276 32.6708 95.8759 32.6708C96.1082 32.6708 96.3351 32.6492 96.562 32.6221V34.27C96.1784 34.3402 95.7894 34.3727 95.4004 34.3672C93.3365 34.3672 92.5315 33.5946 92.5315 31.6172V25.7768H91.0511V24.1235H92.5315V21.7139H94.6332H94.6386Z" fill="white"/>
<path d="M97.6967 29.2184C97.6967 26.0145 99.5822 23.9993 102.527 23.9993C105.471 23.9993 107.357 26.0145 107.357 29.2184C107.357 32.4222 105.487 34.4375 102.527 34.4375C99.566 34.4375 97.6967 32.4331 97.6967 29.2184ZM105.228 29.2184C105.228 27.0194 104.223 25.7228 102.527 25.7228C100.83 25.7228 99.8254 27.0302 99.8254 29.2184C99.8254 31.4065 100.83 32.714 102.527 32.714C104.223 32.714 105.228 31.4281 105.228 29.2184Z" fill="white"/>
<path d="M109.08 24.1235H111.074V25.8578H111.123C111.398 24.7394 112.425 23.9722 113.57 24.0154C113.813 24.0154 114.051 24.0424 114.289 24.091V26.0469C113.986 25.955 113.667 25.9118 113.349 25.9226C112.187 25.874 111.204 26.7816 111.16 27.9433C111.16 28.0513 111.16 28.1594 111.171 28.2674V34.3078H109.08V24.1235Z" fill="white"/>
<path d="M123.927 31.3147C123.646 33.1625 121.847 34.4321 119.54 34.4321C116.579 34.4321 114.737 32.4493 114.737 29.2616C114.737 26.074 116.585 23.9939 119.454 23.9939C122.323 23.9939 124.046 25.9281 124.046 29.0185V29.7371H116.855V29.8613C116.725 31.3201 117.806 32.606 119.265 32.7356C119.373 32.7464 119.486 32.7464 119.594 32.7464C120.61 32.8437 121.566 32.2602 121.944 31.3147H123.927ZM116.86 28.2729H121.95C122.025 26.9222 120.994 25.766 119.643 25.6904C119.578 25.6904 119.519 25.6904 119.454 25.6904C118.027 25.6796 116.866 26.8304 116.86 28.2513C116.86 28.2567 116.86 28.2675 116.86 28.2729Z" fill="white"/>
<path d="M43.4255 9.82238C45.0625 9.70352 46.4835 10.9354 46.6023 12.5724C46.6186 12.7669 46.6132 12.9614 46.5861 13.1559C46.5861 15.3008 45.4245 16.5327 43.4255 16.5327H40.9996V9.82238H43.4255ZM42.0424 15.5872H43.3066C44.4682 15.6574 45.4678 14.7714 45.538 13.6043C45.5488 13.4585 45.538 13.3126 45.5218 13.1721C45.6785 12.0159 44.8734 10.9462 43.7118 10.7895C43.5768 10.7733 43.4417 10.7679 43.3066 10.7733H42.0424V15.5872Z" fill="white"/>
<path d="M47.764 13.9988C47.6397 12.6805 48.6068 11.5081 49.9251 11.3838C51.2434 11.2595 52.4158 12.2266 52.5401 13.5449C52.5563 13.6962 52.5563 13.8475 52.5401 14.0042C52.6697 15.3224 51.7026 16.4949 50.3843 16.6245C49.0661 16.7542 47.8937 15.7871 47.764 14.4688C47.7478 14.3121 47.7478 14.1608 47.764 14.0042V13.9988ZM51.5135 13.9988C51.5135 12.902 51.0219 12.2591 50.152 12.2591C49.2822 12.2591 48.7959 12.902 48.7959 13.9988C48.7959 15.0955 49.2822 15.7439 50.152 15.7439C51.0165 15.7439 51.5135 15.1009 51.5135 13.9988Z" fill="white"/>
<path d="M58.8938 16.5327H57.8564L56.8083 12.7993H56.7272L55.6845 16.5327H54.658L53.264 11.4648H54.2798L55.1874 15.3279H55.2631L56.3058 11.4648H57.2675L58.3103 15.3279H58.3913L59.2936 11.4648H60.2931L58.9046 16.5327H58.8938Z" fill="white"/>
<path d="M61.4601 11.4702H62.4218V12.2753H62.4974C62.7568 11.6809 63.3619 11.319 64.0102 11.373C64.9179 11.3028 65.7067 11.9835 65.7769 12.8912C65.7877 13.0154 65.7769 13.1343 65.7661 13.2532V16.5327H64.7666V13.5017C64.7666 12.6859 64.4154 12.2807 63.6752 12.2807C63.0323 12.2482 62.492 12.7453 62.4596 13.3882C62.4596 13.4477 62.4596 13.5071 62.4596 13.5665V16.5327H61.4601V11.4648V11.4702Z" fill="white"/>
<path d="M67.3545 9.49268H68.354V16.5379H67.3545V9.49268Z" fill="white"/>
<path d="M69.7426 13.9988C69.6184 12.6805 70.5855 11.5081 71.9037 11.3838C73.222 11.2595 74.3944 12.2266 74.5187 13.5449C74.5349 13.6962 74.5349 13.8475 74.5187 14.0042C74.6484 15.3224 73.6813 16.4949 72.363 16.6245C71.0447 16.7542 69.8723 15.7871 69.7426 14.4688C69.7264 14.3121 69.7264 14.1608 69.7426 14.0042V13.9988ZM73.4922 13.9988C73.4922 12.902 73.0005 12.2591 72.1307 12.2591C71.2608 12.2591 70.7746 12.902 70.7746 13.9988C70.7746 15.0955 71.2608 15.7439 72.1307 15.7439C72.9951 15.7439 73.4922 15.1009 73.4922 13.9988Z" fill="white"/>
<path d="M75.5721 15.1008C75.5721 14.1877 76.2529 13.6636 77.4577 13.588L78.83 13.5069V13.0693C78.83 12.5344 78.4789 12.2319 77.7927 12.2319C77.2362 12.2319 76.8472 12.4372 76.7392 12.7938H75.7721C75.8747 11.9239 76.6905 11.3674 77.8413 11.3674C79.111 11.3674 79.8296 11.9996 79.8296 13.0693V16.5325H78.8679V15.8193H78.7868C78.4627 16.338 77.8791 16.6406 77.2632 16.6136C76.4204 16.7 75.6694 16.0895 75.583 15.2521C75.583 15.2034 75.5775 15.1494 75.5721 15.1008ZM78.83 14.6685V14.2471L77.5928 14.3282C76.8958 14.3768 76.5771 14.6145 76.5771 15.0576C76.5771 15.5006 76.9715 15.7761 77.5172 15.7761C78.1709 15.841 78.7598 15.3655 78.8246 14.7064C78.8246 14.6956 78.8246 14.6794 78.8246 14.6685H78.83Z" fill="white"/>
<path d="M81.1371 13.9987C81.1371 12.3994 81.9583 11.3837 83.2388 11.3837C83.8871 11.3513 84.4922 11.7025 84.7948 12.2698H84.8704V9.4873H85.8699V16.5326H84.9137V15.733H84.8326C84.5084 16.3002 83.8925 16.6406 83.2442 16.619C81.9529 16.619 81.1425 15.6033 81.1425 13.9987H81.1371ZM82.169 13.9987C82.169 15.0738 82.6769 15.7221 83.5251 15.7221C84.3734 15.7221 84.8866 15.0684 84.8866 14.0041C84.8866 12.9397 84.3626 12.2806 83.5251 12.2806C82.6877 12.2806 82.169 12.9289 82.169 13.9987Z" fill="white"/>
<path d="M90.0085 13.9988C89.8842 12.6805 90.8513 11.5081 92.1696 11.3838C93.4879 11.2595 94.6603 12.2266 94.7846 13.5449C94.8008 13.6962 94.8008 13.8475 94.7846 14.0042C94.9143 15.3224 93.9471 16.4949 92.6289 16.6245C91.3106 16.7542 90.1382 15.7871 90.0085 14.4688C89.9923 14.3121 89.9923 14.1608 90.0085 14.0042V13.9988ZM93.758 13.9988C93.758 12.902 93.2664 12.2591 92.3965 12.2591C91.5267 12.2591 91.0404 12.902 91.0404 13.9988C91.0404 15.0955 91.5267 15.7439 92.3965 15.7439C93.261 15.7439 93.758 15.1009 93.758 13.9988Z" fill="white"/>
<path d="M96.1245 11.4702H97.0862V12.2753H97.1618C97.4212 11.6809 98.0263 11.319 98.6746 11.373C99.5823 11.3028 100.371 11.9835 100.441 12.8912C100.452 13.0154 100.441 13.1343 100.431 13.2532V16.5327H99.431V13.5017C99.431 12.6859 99.0798 12.2807 98.3397 12.2807C97.6967 12.2482 97.1564 12.7453 97.124 13.3882C97.124 13.4477 97.124 13.5071 97.124 13.5665V16.5327H96.1245V11.4648V11.4702Z" fill="white"/>
<path d="M106.077 10.2058V11.4917H107.173V12.3345H106.077V14.9387C106.077 15.4682 106.293 15.7005 106.795 15.7005C106.925 15.7005 107.049 15.6897 107.179 15.6789V16.5109C107 16.5433 106.817 16.5595 106.633 16.5595C105.52 16.5595 105.077 16.1705 105.077 15.1926V12.3291H104.272V11.4863H105.077V10.2004H106.077V10.2058Z" fill="white"/>
<path d="M108.54 9.49271H109.529V12.286H109.61C109.88 11.6862 110.501 11.3243 111.155 11.3783C112.074 11.3297 112.862 12.032 112.911 12.9559C112.916 13.0586 112.911 13.1666 112.9 13.2693V16.538H111.901V13.5124C111.901 12.702 111.523 12.2914 110.82 12.2914C110.166 12.2373 109.599 12.7236 109.545 13.3719C109.54 13.4368 109.545 13.507 109.545 13.5718V16.5326H108.546V9.4873L108.54 9.49271Z" fill="white"/>
<path d="M118.73 15.1656C118.449 16.1219 117.525 16.7378 116.536 16.6297C115.267 16.6622 114.208 15.6626 114.175 14.393C114.175 14.2687 114.175 14.1444 114.197 14.0202C114.024 12.7397 114.921 11.5673 116.201 11.3944C116.309 11.3782 116.423 11.3728 116.531 11.3728C117.941 11.3728 118.789 12.3345 118.789 13.9283V14.2795H115.213V14.3335C115.153 15.0683 115.699 15.7167 116.434 15.7815C116.477 15.7815 116.52 15.7815 116.563 15.7815C117.055 15.8409 117.53 15.5978 117.768 15.1656H118.73ZM115.213 13.5339H117.774C117.822 12.8586 117.32 12.2751 116.644 12.2264C116.607 12.2264 116.563 12.2264 116.526 12.2264C115.812 12.2156 115.223 12.7883 115.213 13.5069C115.213 13.5177 115.213 13.5285 115.213 13.5393V13.5339Z" fill="white"/>
</g>
<defs>
<clipPath id="clip0_9564_21939">
<rect width="134.622" height="45" fill="white" transform="translate(0.872925)"/>
</clipPath>
</defs>
</svg>
