<svg fill="none" xmlns="http://www.w3.org/2000/svg" viewBox="0 0 103 33"><mask id="a" mask-type="alpha" maskUnits="userSpaceOnUse" x="0" y="0" width="11" height="19">
<style type="text/css">.logoColor { fill:#13C636; will-change:fill; }</style>
<path fill-rule="evenodd" clip-rule="evenodd" d="M0 .899h10.086v18.025H0V.9Z" class="logoColor"/></mask><g mask="url(#a)"><path fill-rule="evenodd" clip-rule="evenodd" d="M9.797 11.591c.257-.229.396-.4.189-.4-.435 0-3.065.384-3.607-1.583-.542-1.966 2.358-7.9 2.467-8.155C8.95 1.21 8.734.9 8.416.9c-.313 0-.543.336-.576.377C4.881 4.95.75 9.538.218 11.516c-1.347 5.007 3.859 7.037 7.145 7.408a.075.075 0 0 0 .087-.074v-1.778c0-2.4.907-4.197 2.347-5.48Z" class="logoColor"/></g><path fill-rule="evenodd" clip-rule="evenodd" d="M92.032 11.591c-.257-.229-.397-.4-.189-.4.435 0 3.065.384 3.607-1.583.542-1.966-2.358-7.9-2.467-8.155-.105-.244.112-.554.43-.554.313 0 .543.336.576.377 2.959 3.674 7.09 8.262 7.622 10.24 1.347 5.007-3.859 7.037-7.145 7.408a.075.075 0 0 1-.087-.074v-1.778c0-2.4-.907-4.197-2.347-5.48ZM88.574 24.375c0 1.942-2.623 3.051-4.33 3.051-1.826 0-4.41-1.109-4.41-3.051v-6.843c0-1.941 2.584-2.853 4.41-2.853 1.707 0 4.33.912 4.33 2.853v6.843Zm-4.33-13.936c-4.05.04-8.776 2.378-8.776 7.093v7.171c0 4.795 4.727 7.053 8.776 7.093 3.97-.04 8.696-2.298 8.696-7.093v-7.171c0-4.715-4.727-7.052-8.696-7.093ZM58.063 24.375c0 1.942-2.624 3.051-4.33 3.051-1.826 0-4.41-1.109-4.41-3.051v-6.843c0-1.941 2.584-2.853 4.41-2.853 1.706 0 4.33.912 4.33 2.853v6.843Zm-4.33-13.936c-4.049.04-8.775 2.378-8.775 7.093v7.171c0 4.795 4.726 7.053 8.775 7.093 3.97-.04 8.697-2.298 8.697-7.093v-7.171c0-4.715-4.727-7.052-8.697-7.093ZM44.63 12c-3.232-.872-5.622-1.238-9.085-1.238-3.465-.001-5.861.365-9.087 1.235a.179.179 0 0 0-.113.286c1.105.91 1.568 2.128 1.783 3.502A27.877 27.877 0 0 1 33.36 15v16.656c-.001.06.042.096.105.096h4.155c.072.005.107-.026.106-.093V15.003c1.789.106 3.28.356 5.041.783.268-1.366.828-2.64 1.959-3.493.1-.124.014-.262-.096-.291ZM75.627 10.586c-.31-.043-1.228-.175-2.035-.145-3.977.152-8.475 2.495-8.475 7.09V31.7c-.002.06.041.096.105.096h4.155c.072.006.107-.025.106-.092V17.532c0-1.516 1.87-2.453 3.43-2.769.453-1.51 1.344-2.601 2.708-3.694.239-.192.226-.452.006-.483ZM21.766 18.741a.185.185 0 0 1-.184.183H13.62v-1.443c0-1.97 2.345-2.894 4.197-2.894 1.731 0 3.951.924 3.951 2.894v1.26Zm-3.95-8.454c-4.107.04-8.626 2.411-8.626 7.194v7.273c0 4.863 4.52 7.154 8.626 7.194 2.942-.03 6.292-1.244 7.887-3.82.053-.085.006-.197-.075-.245-1.406-.804-2.222-1.25-3.615-2.032-.044-.025-.091-.025-.127.034-.761 1.266-2.704 1.964-4.07 1.964-1.852 0-4.197-1.125-4.197-3.095v-2.173h11.384a1.1 1.1 0 0 0 1.101-1.099v-4.001c0-4.783-4.262-7.154-8.288-7.194Z"  class="logoColor"/></svg>