<svg width="500" height="500" viewBox="0 0 500 500" fill="none" xmlns="http://www.w3.org/2000/svg">
<g id="100018_000000_F7F7F7">
<path id="Shape" fill-rule="evenodd" clip-rule="evenodd" d="M331.446 123.287C331.446 132.456 324.004 139.919 314.846 139.919C305.688 139.919 298.247 132.503 298.247 123.334C298.247 114.165 305.688 106.714 314.846 106.667C324.004 106.667 331.446 114.118 331.446 123.287ZM333.798 169.05C333.857 176.77 327.565 183.075 319.743 183.134C311.966 183.134 305.688 176.845 305.688 169.05C305.688 161.255 311.978 154.965 319.743 154.965C327.509 154.965 333.798 161.303 333.798 169.05ZM358.331 188.643C366.061 188.643 372.35 182.352 372.35 174.593C372.35 166.834 366.061 160.543 358.331 160.543C350.601 160.543 344.312 166.834 344.312 174.593C344.312 182.352 350.613 188.643 358.331 188.643ZM365.688 213.614C365.688 220.236 360.323 225.615 353.698 225.615C347.073 225.615 341.708 220.236 341.708 213.614C341.708 206.992 347.073 201.614 353.698 201.614C360.323 201.614 365.688 206.992 365.688 213.614ZM384.592 237.603C391.266 237.603 396.667 232.189 396.667 225.52C396.667 218.85 391.266 213.437 384.592 213.437C381.368 213.459 378.284 214.744 376.019 217.01C373.755 219.276 372.495 222.337 372.518 225.52C372.518 232.189 377.931 237.603 384.592 237.603ZM323.591 216.991C321.286 219.293 318.149 220.597 314.87 220.615C308.077 220.615 302.58 215.071 302.58 208.319C302.58 201.519 308.065 196.023 314.87 196.023C321.676 196.023 327.161 201.531 327.161 208.319V208.343C327.18 211.579 325.896 214.69 323.591 216.991ZM303.732 250.03C309.433 250.03 314.03 245.41 314.03 239.735C314.077 234.096 309.483 229.487 303.769 229.441H303.732C298.031 229.441 293.434 234.061 293.434 239.735C293.434 245.41 298.031 250.03 303.732 250.03ZM349.632 252.208C347.716 254.124 345.108 255.212 342.38 255.23H342.281C339.563 255.195 336.971 254.097 335.074 252.175C333.176 250.254 332.131 247.667 332.166 244.984C332.166 239.322 336.727 234.737 342.38 234.737C348.033 234.737 352.594 239.322 352.594 244.984V245.009C352.613 247.701 351.547 250.291 349.632 252.208ZM373.19 267.171C378.891 267.171 383.488 262.551 383.488 256.841C383.488 251.131 378.891 246.511 373.19 246.511C367.489 246.511 362.892 251.131 362.892 256.841C362.832 262.487 367.421 267.112 373.141 267.171H373.19ZM366.673 280.782C366.673 285.568 362.784 289.489 357.971 289.489C353.158 289.489 349.269 285.568 349.269 280.782C349.269 275.997 353.158 272.075 357.971 272.075C362.784 272.075 366.673 275.997 366.673 280.782ZM327.017 277.738C331.914 277.738 335.923 273.734 335.923 268.818C335.923 263.902 331.95 259.898 327.017 259.898C322.084 259.898 318.111 263.902 318.111 268.818C318.111 273.734 322.12 277.738 327.017 277.738ZM297.232 263.457C297.228 268.282 293.305 272.213 288.417 272.289H288.405C283.517 272.206 279.599 268.271 279.603 263.446C279.606 258.621 283.529 254.69 288.417 254.614H288.429C293.317 254.696 297.235 258.632 297.232 263.457ZM309.877 293.256C314.138 293.256 317.559 289.797 317.559 285.592C317.599 281.399 314.187 277.967 309.939 277.927H309.877C305.616 277.927 302.196 281.387 302.196 285.592C302.149 289.779 305.55 293.21 309.792 293.256H309.877ZM348.585 297.462C348.585 301.75 345.08 305.209 340.819 305.209C336.484 305.209 332.97 301.741 332.97 297.462C332.97 293.183 336.484 289.714 340.819 289.714C345.128 289.714 348.585 293.174 348.585 297.462ZM323.392 314.177C326.765 314.177 329.513 311.429 329.513 308.052C329.533 304.694 326.795 301.954 323.392 301.928C320.019 301.928 317.271 304.676 317.271 308.052C317.264 311.405 319.995 314.138 323.392 314.177ZM310.804 317.353C309.766 318.39 308.353 318.977 306.877 318.986L306.767 318.985C303.719 318.933 301.291 316.451 301.344 313.442V313.428C301.334 311.971 301.912 310.569 302.95 309.532C303.987 308.495 305.4 307.907 306.877 307.898C309.913 307.898 312.41 310.362 312.41 313.442V313.457C312.419 314.914 311.841 316.316 310.804 317.353ZM292.414 303.041C296.051 303.041 299.003 300.08 299.003 296.455C299.003 292.83 296.051 289.868 292.414 289.868C288.777 289.868 285.824 292.83 285.824 296.455C285.817 300.063 288.758 303.003 292.414 303.041ZM278.875 280.273C278.875 284.526 275.418 287.938 271.194 287.938C266.935 287.898 263.505 284.476 263.512 280.273C263.512 276.02 266.969 272.609 271.194 272.609C275.454 272.609 278.875 276.02 278.875 280.273ZM334.122 383.963C343.244 383.963 350.637 376.547 350.637 367.414C350.637 358.28 343.244 350.865 334.122 350.865C325 350.865 317.607 358.28 317.607 367.414C317.607 376.547 325 383.963 334.122 383.963ZM305.941 349.23C305.941 356.847 299.771 363.019 292.174 363.019C284.564 363.019 278.407 356.847 278.407 349.23C278.407 341.613 284.576 335.441 292.174 335.441C299.771 335.441 305.941 341.613 305.941 349.23ZM268.205 393.333C275.887 393.333 282.092 387.126 282.092 379.414C282.092 371.75 275.887 365.495 268.205 365.495C260.523 365.495 254.318 371.702 254.318 379.414C254.258 387.042 260.475 393.274 268.204 393.333H268.205ZM269.539 333.915C267.281 336.175 264.207 337.456 260.992 337.478C254.366 337.478 248.965 332.065 248.953 325.431C248.931 322.258 250.187 319.206 252.444 316.946C254.702 314.687 257.776 313.405 260.992 313.383C264.207 313.405 267.281 314.687 269.539 316.946C271.797 319.206 273.052 322.258 273.03 325.431C273.052 328.604 271.797 331.656 269.539 333.915ZM237.083 368.207C243.708 368.207 249.073 362.829 249.073 356.207C249.073 349.585 243.708 344.207 237.083 344.207C230.457 344.207 225.092 349.585 225.092 356.207C225.026 362.769 230.362 368.141 237.01 368.207H237.083ZM223.268 377.092C223.268 383.679 217.939 389.057 211.314 389.057C204.724 389.057 199.359 383.679 199.359 377.092C199.359 370.506 204.688 365.127 211.314 365.127C217.903 365.127 223.268 370.47 223.268 377.092ZM189.865 361.917C195.536 361.866 200.1 357.303 200.079 351.706C200.079 346.079 195.518 341.494 189.865 341.494C184.213 341.579 179.676 346.126 179.676 351.706C179.676 357.285 184.213 361.832 189.865 361.917ZM225.897 330.762C225.93 336.364 221.359 340.934 215.682 340.973H215.646C209.994 340.879 205.464 336.324 205.474 330.744C205.484 325.164 210.029 320.625 215.682 320.55C221.336 320.55 225.897 325.099 225.897 330.762ZM239.771 310.256C242.499 310.237 245.108 309.15 247.023 307.233C248.939 305.316 250.004 302.727 249.985 300.035V300.01C249.985 294.348 245.424 289.763 239.771 289.763C237.044 289.781 234.435 290.869 232.519 292.786C230.604 294.702 229.538 297.292 229.557 299.984V300.009C229.557 305.671 234.118 310.256 239.771 310.256ZM211.794 305.612C211.794 310.528 207.821 314.485 202.924 314.485C198.027 314.485 194.054 310.528 194.054 305.612C194.054 300.696 198.027 296.739 202.924 296.739C207.821 296.739 211.794 300.696 211.794 305.612ZM177.239 335.346C179.582 335.334 181.824 334.403 183.471 332.759C185.119 331.115 186.037 328.892 186.025 326.58V326.556C186.071 321.748 182.16 317.813 177.288 317.766H177.239C174.896 317.779 172.654 318.709 171.006 320.353C169.359 321.997 168.44 324.22 168.453 326.533V326.556C168.437 328.872 169.354 331.099 171.001 332.747C172.649 334.396 174.893 335.33 177.239 335.346ZM178.931 303.314C178.944 307.474 175.549 310.863 171.334 310.895C167.157 310.895 163.736 307.519 163.736 303.314C163.736 299.144 167.157 295.732 171.334 295.732C175.51 295.732 178.931 299.109 178.931 303.314ZM171.118 289.442C172.859 289.426 174.522 288.729 175.742 287.502C176.962 286.276 177.639 284.621 177.623 282.903C177.623 279.313 174.706 276.364 171.118 276.364C167.529 276.364 164.612 279.278 164.612 282.903C164.612 286.528 167.529 289.442 171.118 289.442ZM180.227 266.058C180.227 269.102 177.779 271.602 174.694 271.602C171.61 271.602 169.161 269.102 169.161 266.058C169.161 263.013 171.61 260.514 174.694 260.514C177.731 260.514 180.227 263.013 180.227 266.058ZM196.839 268.616C200.475 268.616 203.428 265.655 203.428 262.03C203.428 258.405 200.475 255.443 196.839 255.443C193.202 255.443 190.249 258.405 190.249 262.03C190.236 265.641 193.18 268.584 196.839 268.616ZM228.825 251.605C228.825 255.811 225.368 259.27 221.144 259.27H221.108C219.064 259.254 217.11 258.438 215.676 257C214.243 255.563 213.446 253.622 213.462 251.605C213.462 247.4 216.919 243.941 221.144 243.941H221.205C225.453 243.98 228.865 247.412 228.825 251.605ZM226.929 283.602C231.742 283.592 235.637 279.736 235.632 274.985C235.627 270.235 231.724 266.387 226.911 266.387C222.098 266.387 218.195 270.235 218.19 274.985C218.185 279.736 222.08 283.592 226.893 283.602H226.929ZM204.748 282.453C204.748 286.67 201.376 290.082 197.151 290.082V290.08H197.064C195.043 290.052 193.117 289.233 191.708 287.802C190.3 286.372 189.524 284.447 189.553 282.453V282.416C189.54 280.415 190.334 278.49 191.759 277.067C193.184 275.643 195.123 274.836 197.151 274.824C201.328 274.824 204.748 278.235 204.748 282.453ZM113.134 278.769C122.208 278.769 129.601 271.388 129.601 262.302C129.601 253.216 122.208 245.836 113.134 245.836C104.06 245.836 96.6667 253.228 96.6667 262.314C96.6667 271.4 104.06 278.769 113.134 278.769ZM164.612 235.234C164.612 243.029 158.323 249.366 150.509 249.366C142.744 249.366 136.407 243.076 136.407 235.234V235.209C136.354 227.469 142.668 221.153 150.509 221.101C158.275 221.101 164.612 227.439 164.612 235.234ZM135.927 213.117C143.692 213.117 149.945 206.826 149.945 199.067C149.945 191.308 143.656 185.018 135.927 185.018C132.183 185.042 128.603 186.534 125.974 189.164C123.345 191.794 121.882 195.348 121.908 199.042V199.067C121.828 206.747 128.072 213.037 135.853 213.117H135.927ZM183.996 183.892C183.996 190.562 178.583 195.94 171.958 195.94C165.332 195.94 159.919 190.562 159.919 183.892C159.919 177.223 165.32 171.845 171.958 171.845C178.595 171.845 183.996 177.223 183.996 183.892ZM186.685 232.106C193.358 232.106 198.759 226.693 198.759 220.023C198.759 213.354 193.358 207.94 186.685 207.94C180.011 207.94 174.61 213.354 174.61 220.023C174.61 226.693 180.011 232.106 186.685 232.106ZM229.737 214.303C229.783 219.942 225.189 224.55 219.475 224.596L219.402 224.597C213.709 224.531 209.147 219.922 209.213 214.303V213.992C209.269 210.374 211.277 207.06 214.48 205.298C217.684 203.537 221.595 203.596 224.742 205.453C227.889 207.311 229.793 210.684 229.737 214.303ZM247.801 224.691C252.698 224.691 256.671 220.734 256.671 215.853C256.671 210.973 252.698 207.016 247.801 207.016C242.856 207.016 238.847 210.973 238.847 215.853C238.847 220.734 242.856 224.691 247.801 224.691ZM278.683 222.546C278.683 226.681 275.298 230.009 271.206 230.009C267.101 230.009 263.776 226.633 263.728 222.546C263.714 218.451 267.057 215.115 271.206 215.083C275.346 215.083 278.683 218.412 278.683 222.546ZM274.254 202.787C277.869 202.761 280.78 199.851 280.759 196.283C280.759 192.694 277.843 189.78 274.254 189.78C270.665 189.78 267.749 192.694 267.749 196.283C267.728 199.851 270.639 202.761 274.254 202.787ZM263.729 186.47C263.734 190.553 260.387 193.868 256.251 193.879H256.213C252.077 193.868 248.73 190.553 248.735 186.47C248.74 182.387 252.095 179.08 256.232 179.08C260.369 179.08 263.724 182.387 263.729 186.47ZM233.122 188.477C238.005 188.438 241.934 184.506 241.908 179.687C241.908 174.806 237.983 170.897 233.122 170.897C228.261 170.897 224.336 174.854 224.336 179.687C224.317 181.999 225.229 184.224 226.873 185.873C228.516 187.521 230.755 188.458 233.098 188.477H233.122ZM215.142 178.218C215.142 183.892 210.545 188.512 204.844 188.512C199.127 188.46 194.526 183.861 194.546 178.218C194.546 172.543 199.143 167.923 204.844 167.923C210.545 167.923 215.142 172.543 215.142 178.218ZM166.761 162.77C173.218 162.77 178.415 157.558 178.415 151.102C178.415 144.646 173.182 139.433 166.761 139.433C160.303 139.433 155.106 144.646 155.106 151.102C155.106 157.558 160.339 162.77 166.761 162.77ZM209.837 145.404C209.837 151.078 205.24 155.698 199.539 155.698C193.838 155.698 189.241 151.078 189.241 145.404C189.241 139.729 193.838 135.109 199.539 135.109C205.24 135.109 209.837 139.729 209.837 145.404ZM227.853 155.828C232.75 155.828 236.723 151.872 236.723 146.956C236.723 142.039 232.75 138.083 227.853 138.083C225.488 138.095 223.225 139.035 221.561 140.694C219.898 142.354 218.97 144.598 218.983 146.932V146.956C218.962 151.818 222.926 155.784 227.853 155.828ZM258.567 153.649C258.567 157.783 255.23 161.112 251.09 161.112C246.913 161.112 243.528 157.771 243.528 153.649C243.528 149.527 246.913 146.186 251.09 146.186C255.23 146.186 258.567 149.514 258.567 153.649ZM268.937 170.257C272.645 170.231 275.63 167.247 275.61 163.588C275.61 159.88 272.61 156.918 268.937 156.918C265.264 156.918 262.264 159.915 262.264 163.588C262.264 167.26 265.264 170.257 268.937 170.257ZM285.925 179.132C284.897 180.16 283.496 180.744 282.032 180.753L282.034 180.752H281.948C280.493 180.73 279.107 180.139 278.094 179.108C277.081 178.078 276.524 176.692 276.547 175.256V175.244C276.537 173.799 277.11 172.409 278.138 171.381C279.167 170.352 280.567 169.769 282.032 169.76H282.044C283.508 169.772 284.907 170.358 285.934 171.389C286.96 172.42 287.53 173.811 287.517 175.256V175.268C287.526 176.713 286.954 178.103 285.925 179.132Z" fill="#F7F7F7"/>
</g>
</svg>
