<svg width="150" height="150" viewBox="0 0 150 150" fill="none" xmlns="http://www.w3.org/2000/svg">
<path d="M41.2514 95.8229C41.8632 95.2116 42.6928 94.8682 43.5579 94.8682H123.365C124.819 94.8682 125.547 96.6262 124.518 97.6537L108.749 113.411C108.137 114.022 107.307 114.366 106.442 114.366H26.6347C25.181 114.366 24.4532 112.608 25.4815 111.58L41.2514 95.8229Z" fill="url(#paint0_linear)"/>
<path d="M41.2514 36.9549C41.8632 36.3434 42.6928 36 43.5579 36H123.365C124.819 36 125.547 37.758 124.518 38.7858L108.749 54.543C108.137 55.1543 107.307 55.4977 106.442 55.4977H26.6347C25.181 55.4977 24.4532 53.7397 25.4815 52.7121L41.2514 36.9549Z" fill="url(#paint1_linear)"/>
<path d="M108.749 66.2014C108.137 65.5901 107.307 65.2467 106.442 65.2467H26.6347C25.181 65.2467 24.4532 67.0047 25.4815 68.0323L41.2514 83.7895C41.8632 84.401 42.6928 84.7444 43.5579 84.7444H123.365C124.819 84.7444 125.547 82.9864 124.518 81.9586L108.749 66.2014Z" fill="url(#paint2_linear)"/>
<defs>
<linearGradient id="paint0_linear" x1="92.6059" y1="14.5039" x2="37.3723" y2="120.298" gradientUnits="userSpaceOnUse">
<stop stop-color="#00FFA3"/>
<stop offset="1" stop-color="#DC1FFF"/>
</linearGradient>
<linearGradient id="paint1_linear" x1="92.6059" y1="14.5039" x2="37.3723" y2="120.298" gradientUnits="userSpaceOnUse">
<stop stop-color="#00FFA3"/>
<stop offset="1" stop-color="#DC1FFF"/>
</linearGradient>
<linearGradient id="paint2_linear" x1="92.6059" y1="14.504" x2="37.3723" y2="120.298" gradientUnits="userSpaceOnUse">
<stop stop-color="#00FFA3"/>
<stop offset="1" stop-color="#DC1FFF"/>
</linearGradient>
</defs>
</svg>
